<?xml version="1.0" encoding="iso-8859-1"?>
<!-- Generator: Adobe Illustrator 24.0.3, SVG Export Plug-In . SVG Version: 6.00 Build 0)  -->
<svg version="1.1" xmlns="http://www.w3.org/2000/svg" xmlns:xlink="http://www.w3.org/1999/xlink" x="100%" y="100%"
	 viewBox="0 0 64 64" style="enable-background:new 0 0 64 64;" xml:space="preserve">
<g id="cloud">
	<path style="fill:#FFFFFF;" d="M62.557,38.957c0.02,5.951-4.801,10.805-10.752,10.825l-41.359,0.141
		c-4.916,0.017-8.928-3.968-8.945-8.884c-0.017-4.916,3.968-8.928,8.884-8.945c0.429-0.001,0.87,0.027,1.299,0.089
		c0.209,0.033,0.425-0.031,0.586-0.17c0.164-0.142,0.253-0.344,0.252-0.557l0-0.022c-0.002-3.793,3.075-6.887,6.868-6.9
		c0.993-0.003,1.961,0.21,2.877,0.625c0.198,0.093,0.422,0.092,0.62-0.002c0.194-0.094,0.339-0.266,0.394-0.475
		c1.659-6.188,7.292-10.522,13.706-10.544c7.552-0.026,13.814,5.851,14.261,13.383c0.024,0.384,0.335,0.686,0.719,0.692
		C57.787,28.315,62.537,33.137,62.557,38.957z"/>
	<path style="fill:#f2f2f2;" d="M10.386,34.707c0.429-0.001,0.87,0.027,1.299,0.089c0.209,0.033,0.425-0.031,0.586-0.17
		c0.164-0.142,0.253-0.344,0.252-0.557l0-0.022c-0.002-3.793,3.075-6.887,6.868-6.9c0.993-0.003,1.961,0.21,2.877,0.625
		c0.198,0.093,0.422,0.092,0.62-0.002c0.194-0.094,0.339-0.266,0.394-0.475c1.659-6.188,7.292-10.522,13.706-10.544
		c7.552-0.026,13.814,5.851,14.261,13.383c0.024,0.384,0.335,0.686,0.719,0.692c5.2,0.092,9.542,3.952,10.424,8.923
		c0.109-0.621,0.168-1.259,0.166-1.911c-0.02-5.82-4.77-10.642-10.59-10.745c-0.385-0.006-0.695-0.307-0.719-0.692
		c-0.447-7.532-6.709-13.409-14.261-13.383c-6.413,0.022-12.047,4.357-13.706,10.544c-0.055,0.209-0.2,0.381-0.394,0.475
		c-0.198,0.094-0.422,0.095-0.62,0.002c-0.916-0.415-1.884-0.628-2.877-0.625c-3.793,0.013-6.87,3.107-6.868,6.9l0,0.022
		c0.001,0.213-0.088,0.415-0.252,0.557c-0.16,0.139-0.376,0.203-0.586,0.17c-0.429-0.062-0.87-0.09-1.299-0.089
		c-4.916,0.017-8.901,4.028-8.884,8.945c0.002,0.63,0.071,1.245,0.198,1.838C2.556,37.746,6.119,34.722,10.386,34.707z"/>
	<path style="fill:#595959;" d="M52.678,26.846c-0.78-7.993-7.522-14.163-15.63-14.163c-6.798,0-12.819,4.401-14.921,10.796
		c-0.874-0.302-1.781-0.455-2.71-0.455c-4.334,0-7.91,3.319-8.321,7.552c-0.235-0.015-0.474-0.022-0.709-0.022
		C4.659,30.553,0,35.209,0,40.935c0,5.727,4.659,10.382,10.385,10.382h41.359C58.505,51.317,64,45.822,64,39.061
		C64,32.67,58.979,27.324,52.678,26.846z M51.744,49.85H10.385c-4.916,0-8.915-3.998-8.915-8.915c0-4.916,3.998-8.915,8.915-8.915
		c0.429,0,0.87,0.03,1.299,0.093c0.209,0.034,0.426-0.03,0.586-0.168c0.164-0.142,0.254-0.343,0.254-0.556v-0.022
		c0.011-3.793,3.098-6.876,6.891-6.876c0.993,0,1.96,0.217,2.874,0.635c0.198,0.093,0.422,0.093,0.62,0
		c0.194-0.093,0.34-0.265,0.396-0.474c1.68-6.182,7.328-10.497,13.741-10.497c7.552,0,13.794,5.898,14.216,13.432
		c0.022,0.384,0.332,0.687,0.717,0.694c5.82,0.123,10.553,4.961,10.553,10.781C62.533,45.012,57.695,49.85,51.744,49.85z"/>
</g>
<g id="Layer_1">
</g>
</svg>
